<?xml version='1.0' encoding='UTF-8'?>
<svg width="164mm" height="164mm" version="1.1" viewBox="0 0 164 164" xmlns="http://www.w3.org/2000/svg"><path d="M16,16H20V20H16zM20,16H24V20H20zM24,16H28V20H24zM28,16H32V20H28zM32,16H36V20H32zM36,16H40V20H36zM40,16H44V20H40zM56,16H60V20H56zM72,16H76V20H72zM80,16H84V20H80zM88,16H92V20H88zM96,16H100V20H96zM100,16H104V20H100zM108,16H112V20H108zM112,16H116V20H112zM120,16H124V20H120zM124,16H128V20H124zM128,16H132V20H128zM132,16H136V20H132zM136,16H140V20H136zM140,16H144V20H140zM144,16H148V20H144zM16,20H20V24H16zM40,20H44V24H40zM52,20H56V24H52zM60,20H64V24H60zM64,20H68V24H64zM72,20H76V24H72zM76,20H80V24H76zM92,20H96V24H92zM96,20H100V24H96zM104,20H108V24H104zM108,20H112V24H108zM120,20H124V24H120zM144,20H148V24H144zM16,24H20V28H16zM24,24H28V28H24zM28,24H32V28H28zM32,24H36V28H32zM40,24H44V28H40zM52,24H56V28H52zM60,24H64V28H60zM64,24H68V28H64zM72,24H76V28H72zM88,24H92V28H88zM92,24H96V28H92zM108,24H112V28H108zM120,24H124V28H120zM128,24H132V28H128zM132,24H136V28H132zM136,24H140V28H136zM144,24H148V28H144zM16,28H20V32H16zM24,28H28V32H24zM28,28H32V32H28zM32,28H36V32H32zM40,28H44V32H40zM52,28H56V32H52zM56,28H60V32H56zM68,28H72V32H68zM72,28H76V32H72zM76,28H80V32H76zM92,28H96V32H92zM104,28H108V32H104zM108,28H112V32H108zM112,28H116V32H112zM120,28H124V32H120zM128,28H132V32H128zM132,28H136V32H132zM136,28H140V32H136zM144,28H148V32H144zM16,32H20V36H16zM24,32H28V36H24zM28,32H32V36H28zM32,32H36V36H32zM40,32H44V36H40zM48,32H52V36H48zM52,32H56V36H52zM76,32H80V36H76zM80,32H84V36H80zM88,32H92V36H88zM96,32H100V36H96zM100,32H104V36H100zM104,32H108V36H104zM108,32H112V36H108zM112,32H116V36H112zM120,32H124V36H120zM128,32H132V36H128zM132,32H136V36H132zM136,32H140V36H136zM144,32H148V36H144zM16,36H20V40H16zM40,36H44V40H40zM52,36H56V40H52zM64,36H68V40H64zM72,36H76V40H72zM80,36H84V40H80zM84,36H88V40H84zM88,36H92V40H88zM92,36H96V40H92zM96,36H100V40H96zM100,36H104V40H100zM108,36H112V40H108zM120,36H124V40H120zM144,36H148V40H144zM16,40H20V44H16zM20,40H24V44H20zM24,40H28V44H24zM28,40H32V44H28zM32,40H36V44H32zM36,40H40V44H36zM40,40H44V44H40zM48,40H52V44H48zM56,40H60V44H56zM64,40H68V44H64zM72,40H76V44H72zM80,40H84V44H80zM88,40H92V44H88zM96,40H100V44H96zM104,40H108V44H104zM112,40H116V44H112zM120,40H124V44H120zM124,40H128V44H124zM128,40H132V44H128zM132,40H136V44H132zM136,40H140V44H136zM140,40H144V44H140zM144,40H148V44H144zM48,44H52V48H48zM60,44H64V48H60zM64,44H68V48H64zM76,44H80V48H76zM80,44H84V48H80zM92,44H96V48H92zM112,44H116V48H112zM24,48H28V52H24zM28,48H32V52H28zM40,48H44V52H40zM44,48H48V52H44zM48,48H52V52H48zM60,48H64V52H60zM88,48H92V52H88zM96,48H100V52H96zM100,48H104V52H100zM108,48H112V52H108zM116,48H120V52H116zM120,48H124V52H120zM128,48H132V52H128zM16,52H20V56H16zM20,52H24V56H20zM24,52H28V56H24zM28,52H32V56H28zM36,52H40V56H36zM52,52H56V56H52zM56,52H60V56H56zM64,52H68V56H64zM68,52H72V56H68zM72,52H76V56H72zM76,52H80V56H76zM80,52H84V56H80zM88,52H92V56H88zM100,52H104V56H100zM108,52H112V56H108zM116,52H120V56H116zM120,52H124V56H120zM132,52H136V56H132zM136,52H140V56H136zM144,52H148V56H144zM16,56H20V60H16zM20,56H24V60H20zM28,56H32V60H28zM36,56H40V60H36zM40,56H44V60H40zM52,56H56V60H52zM60,56H64V60H60zM64,56H68V60H64zM76,56H80V60H76zM108,56H112V60H108zM112,56H116V60H112zM116,56H120V60H116zM120,56H124V60H120zM132,56H136V60H132zM140,56H144V60H140zM144,56H148V60H144zM20,60H24V64H20zM24,60H28V64H24zM32,60H36V64H32zM44,60H48V64H44zM52,60H56V64H52zM56,60H60V64H56zM60,60H64V64H60zM64,60H68V64H64zM76,60H80V64H76zM80,60H84V64H80zM88,60H92V64H88zM124,60H128V64H124zM128,60H132V64H128zM132,60H136V64H132zM144,60H148V64H144zM16,64H20V68H16zM20,64H24V68H20zM24,64H28V68H24zM28,64H32V68H28zM32,64H36V68H32zM40,64H44V68H40zM56,64H60V68H56zM64,64H68V68H64zM68,64H72V68H68zM80,64H84V68H80zM84,64H88V68H84zM88,64H92V68H88zM96,64H100V68H96zM100,64H104V68H100zM108,64H112V68H108zM116,64H120V68H116zM124,64H128V68H124zM132,64H136V68H132zM144,64H148V68H144zM16,68H20V72H16zM20,68H24V72H20zM28,68H32V72H28zM32,68H36V72H32zM44,68H48V72H44zM60,68H64V72H60zM64,68H68V72H64zM68,68H72V72H68zM80,68H84V72H80zM88,68H92V72H88zM92,68H96V72H92zM96,68H100V72H96zM100,68H104V72H100zM104,68H108V72H104zM112,68H116V72H112zM132,68H136V72H132zM24,72H28V76H24zM32,72H36V76H32zM40,72H44V76H40zM44,72H48V76H44zM52,72H56V76H52zM60,72H64V76H60zM64,72H68V76H64zM96,72H100V76H96zM100,72H104V76H100zM112,72H116V76H112zM116,72H120V76H116zM120,72H124V76H120zM124,72H128V76H124zM128,72H132V76H128zM132,72H136V76H132zM136,72H140V76H136zM16,76H20V80H16zM32,76H36V80H32zM36,76H40V80H36zM48,76H52V80H48zM52,76H56V80H52zM56,76H60V80H56zM68,76H72V80H68zM80,76H84V80H80zM84,76H88V80H84zM92,76H96V80H92zM100,76H104V80H100zM104,76H108V80H104zM108,76H112V80H108zM116,76H120V80H116zM128,76H132V80H128zM132,76H136V80H132zM136,76H140V80H136zM140,76H144V80H140zM16,80H20V84H16zM40,80H44V84H40zM44,80H48V84H44zM56,80H60V84H56zM60,80H64V84H60zM64,80H68V84H64zM68,80H72V84H68zM80,80H84V84H80zM100,80H104V84H100zM112,80H116V84H112zM116,80H120V84H116zM120,80H124V84H120zM128,80H132V84H128zM132,80H136V84H132zM136,80H140V84H136zM140,80H144V84H140zM20,84H24V88H20zM24,84H28V88H24zM28,84H32V88H28zM36,84H40V88H36zM44,84H48V88H44zM52,84H56V88H52zM72,84H76V88H72zM92,84H96V88H92zM96,84H100V88H96zM104,84H108V88H104zM108,84H112V88H108zM116,84H120V88H116zM120,84H124V88H120zM124,84H128V88H124zM128,84H132V88H128zM136,84H140V88H136zM140,84H144V88H140zM144,84H148V88H144zM24,88H28V92H24zM40,88H44V92H40zM68,88H72V92H68zM76,88H80V92H76zM80,88H84V92H80zM88,88H92V92H88zM92,88H96V92H92zM116,88H120V92H116zM120,88H124V92H120zM136,88H140V92H136zM140,88H144V92H140zM28,92H32V96H28zM44,92H48V96H44zM48,92H52V96H48zM68,92H72V96H68zM76,92H80V96H76zM88,92H92V96H88zM104,92H108V96H104zM16,96H20V100H16zM20,96H24V100H20zM40,96H44V100H40zM44,96H48V100H44zM52,96H56V100H52zM56,96H60V100H56zM72,96H76V100H72zM84,96H88V100H84zM92,96H96V100H92zM96,96H100V100H96zM100,96H104V100H100zM112,96H116V100H112zM120,96H124V100H120zM132,96H136V100H132zM136,96H140V100H136zM144,96H148V100H144zM16,100H20V104H16zM20,100H24V104H20zM56,100H60V104H56zM64,100H68V104H64zM68,100H72V104H68zM80,100H84V104H80zM84,100H88V104H84zM88,100H92V104H88zM92,100H96V104H92zM100,100H104V104H100zM112,100H116V104H112zM136,100H140V104H136zM140,100H144V104H140zM144,100H148V104H144zM24,104H28V108H24zM32,104H36V108H32zM36,104H40V108H36zM40,104H44V108H40zM44,104H48V108H44zM48,104H52V108H48zM56,104H60V108H56zM60,104H64V108H60zM84,104H88V108H84zM92,104H96V108H92zM100,104H104V108H100zM104,104H108V108H104zM108,104H112V108H108zM112,104H116V108H112zM120,104H124V108H120zM124,104H128V108H124zM140,104H144V108H140zM144,104H148V108H144zM20,108H24V112H20zM24,108H28V112H24zM28,108H32V112H28zM36,108H40V112H36zM48,108H52V112H48zM56,108H60V112H56zM64,108H68V112H64zM72,108H76V112H72zM76,108H80V112H76zM80,108H84V112H80zM84,108H88V112H84zM88,108H92V112H88zM96,108H100V112H96zM116,108H120V112H116zM124,108H128V112H124zM132,108H136V112H132zM16,112H20V116H16zM24,112H28V116H24zM28,112H32V116H28zM36,112H40V116H36zM40,112H44V116H40zM44,112H48V116H44zM48,112H52V116H48zM52,112H56V116H52zM60,112H64V116H60zM64,112H68V116H64zM76,112H80V116H76zM84,112H88V116H84zM88,112H92V116H88zM92,112H96V116H92zM96,112H100V116H96zM112,112H116V116H112zM116,112H120V116H116zM120,112H124V116H120zM124,112H128V116H124zM128,112H132V116H128zM140,112H144V116H140zM48,116H52V120H48zM56,116H60V120H56zM72,116H76V120H72zM84,116H88V120H84zM100,116H104V120H100zM108,116H112V120H108zM112,116H116V120H112zM128,116H132V120H128zM132,116H136V120H132zM16,120H20V124H16zM20,120H24V124H20zM24,120H28V124H24zM28,120H32V124H28zM32,120H36V124H32zM36,120H40V124H36zM40,120H44V124H40zM48,120H52V124H48zM60,120H64V124H60zM68,120H72V124H68zM76,120H80V124H76zM84,120H88V124H84zM88,120H92V124H88zM92,120H96V124H92zM96,120H100V124H96zM100,120H104V124H100zM108,120H112V124H108zM112,120H116V124H112zM120,120H124V124H120zM128,120H132V124H128zM136,120H140V124H136zM16,124H20V128H16zM40,124H44V128H40zM52,124H56V128H52zM60,124H64V128H60zM64,124H68V128H64zM68,124H72V128H68zM72,124H76V128H72zM76,124H80V128H76zM92,124H96V128H92zM96,124H100V128H96zM108,124H112V128H108zM112,124H116V128H112zM128,124H132V128H128zM132,124H136V128H132zM136,124H140V128H136zM140,124H144V128H140zM144,124H148V128H144zM16,128H20V132H16zM24,128H28V132H24zM28,128H32V132H28zM32,128H36V132H32zM40,128H44V132H40zM68,128H72V132H68zM72,128H76V132H72zM76,128H80V132H76zM88,128H92V132H88zM104,128H108V132H104zM108,128H112V132H108zM112,128H116V132H112zM116,128H120V132H116zM120,128H124V132H120zM124,128H128V132H124zM128,128H132V132H128zM132,128H136V132H132zM136,128H140V132H136zM140,128H144V132H140zM16,132H20V136H16zM24,132H28V136H24zM28,132H32V136H28zM32,132H36V136H32zM40,132H44V136H40zM48,132H52V136H48zM52,132H56V136H52zM60,132H64V136H60zM72,132H76V136H72zM76,132H80V136H76zM84,132H88V136H84zM100,132H104V136H100zM104,132H108V136H104zM112,132H116V136H112zM124,132H128V136H124zM132,132H136V136H132zM136,132H140V136H136zM16,136H20V140H16zM24,136H28V140H24zM28,136H32V140H28zM32,136H36V140H32zM40,136H44V140H40zM48,136H52V140H48zM52,136H56V140H52zM56,136H60V140H56zM68,136H72V140H68zM80,136H84V140H80zM88,136H92V140H88zM108,136H112V140H108zM116,136H120V140H116zM120,136H124V140H120zM132,136H136V140H132zM16,140H20V144H16zM40,140H44V144H40zM60,140H64V144H60zM72,140H76V144H72zM84,140H88V144H84zM88,140H92V144H88zM92,140H96V144H92zM96,140H100V144H96zM100,140H104V144H100zM108,140H112V144H108zM112,140H116V144H112zM144,140H148V144H144zM16,144H20V148H16zM20,144H24V148H20zM24,144H28V148H24zM28,144H32V148H28zM32,144H36V148H32zM36,144H40V148H36zM40,144H44V148H40zM56,144H60V148H56zM68,144H72V148H68zM76,144H80V148H76zM96,144H100V148H96zM108,144H112V148H108zM116,144H120V148H116zM124,144H128V148H124zM128,144H132V148H128zM136,144H140V148H136z" id="qr-path" fill="#000000" fill-opacity="1" fill-rule="nonzero" stroke="none" /></svg>